Patient4_TMGait_0pt6_02_right_19_EMG.mot
version=1
nRows=40
nColumns=33
inDegrees=no
endheader
time	1LAddLong	2LGlutMax	3LGlutMed	4LIliopsoas	5LSemiMemb	6LBicFemLong	7LRecFem	8LVastMed	9LVastLat	10LGasMed	11LTibAnt	12lTibPost	13LPeroneusLong	14LSol	15LExtDigLong	16LFlexDigLong	17RAddLong	18RGlutMax	19RGlutMed	20RIliopsoas	21RSemiMemb	22RBicFemLong	23RRecFem	24RVastMed	25RVastLat	26RGasMed	27RTibAnt	28RTibPost	29RPeroneusLong	30RSol	31RExtDigLong	32RFlexDigLong
24.013	-0.006561	0.14908	-0.09201	0.012512	0.02121	0.097809	0.1181	0.012054	0.023346	-0.16022	0.004272	-0.000305	0.12116	-0.59494	-0.06958	0.028839	0.072479	0.016174	-0.11063	0.009613	-0.029144	0.003967	-0.017395	-0.10849	-0.006104	-0.007324	0.058289	-0.009613	0.27618	-0.018463	0.004883	-0.015564
24.014	0.005493	0.097656	-0.020599	0.009003	0.023193	0.060272	0.11856	0.010529	0.01709	0.042267	0.006104	-0.010529	0.081024	-0.16312	-0.026245	0.38589	0.074615	-0.021362	-0.038147	0.001831	0.065765	0.031433	-0.0177	-0.12024	0.004272	-0.010529	0.095825	-0.001373	0.31296	-0.077362	-0.003052	-0.015259
24.015	0.01358	0.095673	0.014648	0.009003	0.058899	0.026855	0.11429	0.007935	0.010376	0.58044	0.00824	-0.028229	0.041046	0.093079	-0.000916	-0.25009	0.032501	0.009003	-0.00885	0.091858	0.041199	-0.002594	-0.007477	-0.10162	0.020599	-0.007782	0.016327	-0.000305	0.30823	-0.11032	0.00473	-0.010986
24.016	0.012512	0.087433	0.044403	0.01236	0.03479	-0.040131	0.14679	0.010529	0.011597	0.63568	0.008392	-0.043793	0.032959	-0.059357	0.016479	0.050812	-0.017548	-0.020142	-0.061188	0.18494	-0.011749	-0.008698	0.003204	-0.079803	0.007019	-0.003052	-0.075073	-0.002441	0.39795	-0.093384	0.003967	-0.013275
24.017	0.013275	0.12665	0.079651	0.009308	0.074158	-0.17914	0.1384	0.011902	0.018463	0.011139	0.005035	-0.12039	0.04303	-0.66528	0.025787	-0.15701	-0.047607	-0.070953	-0.0737	0.14847	-0.015564	-0.005188	0.030365	-0.075531	0.006866	-0.006104	-0.076294	-0.007782	0.16388	-0.020599	0.002441	-0.01236
24.018	0.000153	0.12024	0.009155	0.001373	0.06485	-0.17242	0.14664	0.003052	0.027771	0.071869	0.009766	-0.48431	0.030212	-1.3333	0.016937	0.065155	-0.078125	-0.055695	-0.10986	-0.057983	-0.008545	-0.007477	0.034637	-0.077515	0.005493	-0.00824	-0.020294	-0.00473	-0.079041	0.063477	0.002136	-0.002594
24.019	0.001221	0.10742	-0.013428	0.005646	0.016479	-0.085754	0.14664	0.002289	0.022125	0.15793	0.000458	0.4715	0.007324	-1.1798	0.052643	0.12909	-0.077209	0.000305	-0.11826	-0.16632	-0.014954	-0.006256	0.002747	-0.10513	0.02243	-0.015106	0.081024	-0.002136	-0.41519	0.063477	0.000153	-0.010071
24.02	-0.005035	0.077515	-0.028992	-0.005798	0.031281	0.009308	0.16296	-0.023193	-0.001373	0.35934	-0.00473	0.097046	0.002289	-0.50384	0.054779	-0.099792	-0.082855	0.014038	-0.045776	-0.12268	-0.037842	0.023041	0.005646	-0.11597	0.02243	-0.011902	0.13611	-0.003967	-0.53619	0.020294	-0.004883	-0.012665
24.021	0.020752	0.083771	-0.010376	-0.003052	0.033264	-0.070953	0.19562	0.018768	-0.005035	0.75256	0.013123	-0.079041	-0.030365	-0.071716	0.06546	-0.1152	-0.05722	-0.007019	-0.013885	0.04837	0.001984	0.095367	0.012817	-0.088043	0.024414	-0.010071	0.11643	0.001526	0.069427	-0.045776	0.001831	-0.012665
24.022	0.024719	0.080719	-0.00061	-0.002136	-0.050812	-0.024261	0.20645	0.024109	-0.009918	0.47333	0.005493	-0.099335	-0.078888	0.047455	0.056305	-0.028534	-0.034332	-0.028381	-0.097351	0.15121	0.045624	0.065918	0.016022	-0.087128	0.021362	-0.012512	0.067902	-0.000763	0.29923	-0.035553	-0.001831	-0.002594
24.023	0.005035	0.087433	-0.001373	0.000153	0.007782	-0.039215	0.22537	0.009308	-0.023651	0.037231	0.01236	-0.082092	-0.085144	0.040894	0.006409	0.089722	-0.029602	-0.051422	-0.22766	0.12634	0.089111	0.065765	0.016632	-0.038605	0.019531	-0.014343	0.047302	-0.003052	-0.22446	-0.035095	-0.000305	-0.001678
24.024	0.00412	0.065002	0.017395	0.001373	0.071564	-0.077972	0.23499	0.020752	-0.032043	-0.24017	0.011292	-0.092316	0.001984	-0.057678	-0.019226	-0.051727	-0.050049	-0.032654	-0.18494	0.003662	0.064087	0.11948	-0.005035	-0.046082	0.03891	-0.014801	0.061951	-0.004425	-0.70389	-0.029449	-0.003052	0.000305
24.025	0.012512	0.080719	0.050049	-0.002136	0.045624	-0.076599	0.18845	0.006866	-0.010834	-0.21637	0.026855	0.09079	0.001373	0.036316	0.024567	0.24338	-0.072632	0.025482	-0.10544	0.025482	0.028076	0.14526	-0.000153	-0.040741	0.036316	-0.010986	0.080872	-0.007477	-0.48248	-0.02243	-0.007782	0.003204
24.026	0.029755	0.074005	0.013123	-0.001373	0.037231	-0.058899	0.17044	0.007172	0.000305	-0.026703	0.041656	0.085754	-0.06424	0.28046	0.049438	-0.26733	-0.061035	0.027466	0.044708	0.012207	-0.079956	0.15152	0.016937	-0.018921	0.031891	-0.014038	0.081329	-0.001526	-0.20828	-0.019989	0.001068	-0.004272
24.027	0.016327	0.072327	0.016785	0.015564	0.035553	0.023956	0.20233	0.00946	0.023041	0.069733	0.037079	-0.27023	-0.057068	0.25299	0.012207	0.89829	-0.02594	0.094299	0.094299	-0.003052	-0.014191	0.078278	0.012665	-0.016937	0.01236	-0.019989	0.044556	-0.002899	0.21866	-0.057373	-0.002899	-0.000916
24.028	0.016632	0.072327	-0.01358	0.005798	0.018158	0.058899	0.21393	0.010681	0.009766	-0.40497	-0.017242	-0.20981	0.009613	0.45578	0.001068	-0.052032	0.002441	0.15411	0.019989	-0.05188	-0.018158	-0.02121	0.059662	-0.09079	0.007019	-0.020142	0.049438	-0.011139	0.097961	-0.087128	-0.00061	-0.003662
24.029	0.010834	0.078735	0.065308	-0.002747	0.039978	0.029144	0.2211	0.008087	0.026245	-0.46265	-0.033112	0.15793	0.059967	0.29266	-0.019226	-0.41794	0.027466	0.10895	0.38834	-0.039063	-0.011139	-0.078278	0.06012	-0.088959	0.007629	-0.027618	0.059662	-0.005951	-0.1326	-0.077515	-0.002289	-0.004883
24.03	0.012054	0.089722	0.027771	0.013885	0.045166	0.000763	0.2388	0.007172	-0.004883	0.25681	-0.007477	0.049133	0.10269	0.094757	-0.031281	-0.070343	0.026703	0.071716	0.54749	-0.057831	0.061951	-0.16403	0.024872	-0.077209	0.014191	-0.045471	0.036316	-0.004272	0.0914	-0.029144	-0.003662	-0.008087
24.031	0.011749	0.10361	0.032043	-0.005188	0.04303	-0.006866	0.23438	0.007324	-0.016937	0.16083	-0.020294	0.01297	0.11856	-0.082092	-0.037842	0.3978	0.018158	0.064087	0.32974	-0.00473	0.083466	-0.17944	0.009766	-0.092163	0.015259	-0.053864	0.042267	-0.009918	0.25894	-0.014648	-0.008392	-0.010376
24.032	0.011292	0.076752	0.054474	0.001068	0.025177	-0.021362	0.23926	0.007935	-0.011292	-0.03067	-0.001373	-0.039825	0.13992	-0.57419	-0.019836	-0.040131	0.024414	0.039215	0.075684	0.039063	0.017242	-0.12054	0.055389	-0.098267	0.017395	-0.065613	0.050354	-0.009155	0.43472	-0.002289	0.000153	-0.004425
24.033	0.00885	0.040894	-0.001068	0.017395	0.016479	-0.088043	0.22507	0.000153	-0.019989	-0.20447	0.006104	-0.17227	0.12054	-1.2402	-0.046692	-0.37369	0.005798	0.027008	0.020599	0.035553	-0.23499	-0.046234	0.049896	-0.093231	0.019989	-0.080566	0.08255	-0.000305	0.27588	-0.028534	-0.000458	-0.001831
24.034	0.014191	0.012665	0.024414	0.017242	0.01709	-0.071564	0.20676	0.002899	-0.00351	-0.092163	0.016785	-0.040436	0.050049	-1.0898	-0.039368	0.25024	-0.003815	0.07309	-0.076141	-0.028534	-0.50293	0.014038	0.044861	-0.12009	0.016022	-0.092468	0.080566	-0.001526	-0.016174	-0.04715	0.001984	-0.007172
24.035	0.012665	-0.032501	0.069885	0.011444	0.006866	-0.005035	0.22232	0.00885	0.032959	-0.068207	0.024719	0.080566	-0.001526	-0.55115	-0.033417	-0.12833	-0.014496	0.005341	0.15274	-0.044556	-0.44189	0.19775	0.037384	-0.049591	0.02655	-0.11246	0.058899	-0.000153	-0.15671	-0.026398	-0.002747	-0.007935
24.036	0.009155	-0.042572	0.074921	-0.003052	-0.005188	0.025177	0.25574	-0.007782	0.06958	-0.22278	-0.006714	-0.28503	0.000458	0.060577	-0.063782	-0.087585	-0.034027	-0.12192	0.10925	-0.018311	0.19592	0.24139	0.005951	-0.049896	0.044403	-0.088501	-0.005951	0.006714	-0.071564	-0.045166	-0.002747	-0.000916
24.037	0.010529	-0.092773	0.092621	0.010986	-0.009003	0.012665	0.26779	0.001831	0.059357	-0.59036	0.020294	-0.015411	0.01709	0.38925	-0.044556	0.057068	-0.042877	-0.12589	0.027313	-0.02655	0.33829	0.057373	0.013733	0.001373	0.043335	-0.042572	-0.011444	-0.000916	-0.058289	-0.049591	0.002136	-0.007782
24.038	0.004272	-0.10071	0.023193	0.014648	-0.006561	0.028076	0.26352	0.007629	0.044708	-0.67795	0.009918	-0.0737	-0.032959	0.3006	0.002594	0.15488	-0.014191	-0.13199	0.00412	-0.026093	0.10193	-0.000305	0.021057	-0.053864	0.0383	0.004578	0.028381	-0.001678	-0.29633	-0.058136	0.002136	0.005035
24.039	-0.004883	-0.098724	0.06134	-0.000458	0.002747	0.036774	0.27145	0.005646	0.028992	-0.51315	0.03006	-0.08255	-0.062561	-0.1442	0.024872	-0.022736	-0.006256	-0.13886	-0.15915	-0.022583	0.066223	-0.005035	0.037689	-0.08728	0.023346	0.045013	0.063629	-0.004425	-0.13748	-0.002289	0.000153	0.00351
24.04	0.00473	-0.095978	0.10468	-0.001526	-0.003357	-0.006714	0.27512	0.005493	0.031128	-0.44876	0.007172	-0.055237	-0.0383	-0.21118	0.026093	-0.075989	-0.004578	-0.04715	-0.11307	-0.036163	-0.075073	-0.016174	0.029602	-0.072021	0.027618	0.08255	0.027924	0.006409	0.18021	-0.027161	0.000305	-0.003204
24.041	-0.004425	-0.08728	0.12604	0.00412	0.00885	0.026245	0.29266	0.00412	0.031281	-0.40024	0.010681	-0.048828	-0.036621	-0.13184	0.023193	-0.052338	-0.008698	-0.082245	-0.1471	-0.028076	-0.12085	-0.010529	-0.00473	-0.045929	0.038605	0.12283	-0.021057	-0.000458	-0.23239	-0.12695	0.008087	-0.008392
24.042	-0.010529	-0.075989	0.074615	0.006409	0.027771	0.052643	0.30945	0.006256	0.028992	-0.29602	0.003815	-0.043488	-0.025177	-0.12314	0.012207	-0.041962	-0.011902	-0.082703	-0.23636	-0.007324	0.22461	0.037231	-0.02533	-0.018311	0.038605	0.14893	0.013275	-0.001984	-0.18921	-0.10544	-0.002899	-0.007477
24.043	-0.014954	-0.089111	0.042877	0.016022	-0.016327	0.10437	0.34637	0.005798	0.02594	-0.21668	0.027313	-0.042419	-0.012207	-0.077209	0.01297	-0.025635	-0.006561	-0.08728	-0.15015	-0.010223	0.25452	0.005798	0.004272	-0.007477	0.03952	0.15121	0.041351	-0.002289	-0.088654	-0.046387	-0.005188	-0.001831
24.044	-0.008087	-0.080261	-0.02182	0.011444	-0.078583	0.13779	0.36392	0.009003	0.041199	-0.17425	0.00412	-0.033417	0.005951	0.093079	0.009918	-0.004578	-0.021973	-0.13306	-0.052948	-0.007935	0.12085	0.000916	0.024261	-0.016174	0.017548	0.14923	0.023346	0.000305	0.11765	0.012207	-0.000153	-0.006714
24.045	-0.00885	-0.079956	-0.035095	0.015259	-0.14053	0.14999	0.34088	0.004883	0.05722	-0.13687	0.01358	-0.025482	0.094299	0.18097	0.018463	-0.014801	-0.006256	-0.11444	0.090485	0.021057	0.22964	0.019531	0.001526	0.0177	0.009308	0.13428	0.006104	-0.002899	0.2446	0.035706	-0.003052	-0.002136
24.046	0.00473	-0.072632	-0.028992	0.008392	-0.033264	0.078278	0.31265	0.007324	0.075531	-0.006561	0.000153	-0.045166	0.12482	0.22858	0.022736	-0.013275	0.005951	-0.14038	0.12878	-0.013885	0.168	0.02243	0.024109	-0.056305	0.032501	0.11765	-0.007782	-0.003204	0.24002	-0.022736	-0.00061	-0.011749
24.047	0.013885	-0.074158	-0.027924	0.013275	0.038452	0.0354	0.30609	-0.001678	0.079956	-0.10803	0.010834	-0.035858	0.097504	0.29968	0.015411	-0.037231	0.016174	-0.14908	0.067291	-0.025024	0.085602	0.034027	0.032501	-0.014191	0.016632	0.081482	0.023804	-0.002747	-0.19577	-0.040283	-0.003815	-0.006256
24.048	0.018921	-0.074158	0.018616	-0.011597	-0.037384	-0.05127	0.35523	-0.004425	0.066071	-0.16647	0.002747	0.081177	0.075226	0.23941	0.011597	-0.066833	0.014648	-0.12787	-0.092468	0.003815	0.056915	0.081787	0.020599	-0.038452	0.027618	0.05127	0.059662	-0.003967	-0.48966	-0.033875	-0.002899	-0.003815
24.049	0.017548	-0.059052	0.011749	0.008698	-0.087585	-0.19775	0.3569	-0.004425	0.072632	0.043182	0.004883	0.033112	-0.029297	-0.045166	0.013885	-0.030212	0.02655	-0.11688	-0.28259	0.027466	0.036011	0.084381	0.044403	-0.035706	0.027466	0.037689	0.062866	-0.001984	-0.30991	-0.046844	-0.004272	-0.004425
24.05	0.014343	-0.03891	-0.013885	0.001068	0.021973	-0.32669	0.35355	-0.008392	0.076294	0.29007	0.023193	-0.037689	-0.095215	-0.21118	0.02533	0.14252	0.042267	-0.13519	-0.23804	0.007629	0.037384	0.016327	0.041504	-0.084076	0.020294	0.025177	0.015411	-0.002747	0.34088	-0.03891	-0.001831	-0.006409
24.051	0.005951	-0.050049	0.001678	-0.012665	0.11597	-0.336	0.38208	-0.001221	0.05188	0.46509	-0.00824	-0.040131	-0.044556	-0.086975	0.042267	0.60242	0.043945	-0.12589	-0.13046	0.007324	0.10193	-0.009308	-0.012207	-0.0737	0.028229	0.005798	0.029144	-0.006409	0.36499	-0.006714	-0.003052	-0.006104
24.052	-0.004272	-0.039978	0	0	0.17349	-0.097198	0.40939	0.00061	0.046997	0.63751	0.000305	-0.035706	-0.030518	0.025024	0.034485	-1.1862	0.039825	-0.053558	0.052185	-0.057068	0.10712	-0.009003	0.014648	-0.066071	0.05188	-0.010529	0.024719	-0.003967	0.21652	-0.008545	0.000153	0
